<?xml version="1.0" encoding="utf-8"?>
<!-- Generator: Adobe Illustrator 24.1.0, SVG Export Plug-In . SVG Version: 6.00 Build 0)  -->
<svg version="1.1" id="Layer_1" xmlns="http://www.w3.org/2000/svg" xmlns:xlink="http://www.w3.org/1999/xlink" x="0px" y="0px"
	 viewBox="0 0 162.8 162.8" style="enable-background:new 0 0 162.8 162.8;" xml:space="preserve">
<style type="text/css">
	.st0{fill:#2684FE;}
	.st1{fill:#00EDA5;}
	.st2{fill:#19A7E0;}
	.st3{fill:#0DCAC3;}
</style>
<g id="_4tick_Symbol">
	<polygon class="st0" points="116,0 98.7,17.3 81.4,34.6 64.1,17.3 46.8,34.6 64.1,51.9 81.4,69.2 98.7,51.9 116,34.6 133.3,17.3 	
		"/>
	<polygon class="st1" points="98.7,110.9 81.4,93.6 64.1,110.9 46.8,128.2 29.5,145.5 46.8,162.8 64.1,145.5 81.4,128.2 98.7,145.5 
		116,128.2 	"/>
	<polygon class="st2" points="145.5,98.7 128.2,81.4 145.5,64.1 128.2,46.8 110.9,64.1 93.6,81.4 110.9,98.7 128.2,116 145.5,133.3 
		162.8,116 	"/>
	<polygon class="st3" points="51.9,64.1 34.6,46.8 17.3,29.5 0,46.8 17.3,64.1 34.6,81.4 17.3,98.7 34.6,115.9 51.9,98.7 69.2,81.4 
			"/>
</g>
</svg>
